<!DOCTYPE svg PUBLIC "-//W3C//DTD SVG 20010904//EN" "http://www.w3.org/TR/2001/REC-SVG-20010904/DTD/svg10.dtd">
<svg version="1.0" xmlns="http://www.w3.org/2000/svg" width="313px" height="296px" viewBox="0 0 3130 2960" preserveAspectRatio="xMidYMid meet">
<g id="layer101" fill="#000000" stroke="none">
 <path d="M335 2741 c-126 -19 -157 -70 -135 -229 26 -193 53 -338 66 -353 8 -8 14 -23 14 -32 0 -9 18 -26 39 -37 36 -18 56 -19 233 -17 159 2 192 4 190 16 -2 11 3 10 24 -4 22 -14 44 -17 135 -13 103 3 109 5 146 34 52 42 64 111 40 234 -9 47 -21 123 -27 170 -13 113 -35 174 -71 205 -31 25 -31 25 -237 25 -114 0 -243 2 -287 4 -44 3 -102 1 -130 -3z m553 -150 c14 -9 70 -356 59 -367 -3 -4 -67 -6 -142 -5 -115 1 -135 -1 -135 -14 0 -19 -11 -19 -36 0 -14 10 -48 14 -126 15 -59 0 -109 4 -112 8 -10 16 -57 344 -52 358 4 12 51 14 268 14 145 0 269 -4 276 -9z m-548 -415 c0 -8 -4 -18 -10 -21 -5 -3 -10 3 -10 14 0 12 5 21 10 21 6 0 10 -6 10 -14z m257 -33 c-4 -3 -10 -3 -14 0 -3 4 0 7 7 7 7 0 10 -3 7 -7z m80 -40 c-4 -3 -7 0 -7 7 0 7 3 10 7 7 3 -4 3 -10 0 -14z"/>
 <path d="M618 2413 c-69 -3 -88 -7 -88 -18 0 -12 20 -15 110 -15 61 0 110 4 110 8 0 12 -23 32 -34 30 -6 -1 -50 -4 -98 -5z"/>
 <path d="M1220 2735 c-117 -37 -129 -90 -83 -373 24 -149 29 -169 61 -216 19 -28 41 -57 50 -63 12 -10 76 -13 244 -13 188 0 235 3 269 16 34 14 40 21 36 40 -3 15 2 24 13 27 31 8 30 69 -5 286 -36 228 -48 261 -109 286 -50 21 -419 28 -476 10z m192 -158 c4 -6 10 -37 13 -67 8 -82 19 -123 33 -128 15 -5 16 92 1 157 -5 24 -8 46 -5 48 2 3 40 7 83 10 60 4 81 2 89 -8 6 -8 21 -84 34 -169 12 -85 24 -165 27 -177 l5 -23 -191 0 c-105 0 -191 2 -191 5 0 2 -11 73 -25 157 -33 203 -33 206 8 211 46 7 110 -2 119 -16z"/>
 <path d="M1920 2718 c-53 -28 -80 -75 -80 -138 0 -25 10 -101 21 -170 11 -69 23 -147 27 -175 6 -45 10 -50 35 -53 15 -2 27 -8 27 -13 0 -5 12 -10 28 -10 23 -2 24 -2 5 -6 -13 -2 -23 -11 -23 -20 0 -21 40 -52 68 -53 26 0 28 7 5 32 -15 17 -15 18 2 18 11 0 15 5 11 15 -4 12 4 15 41 15 40 0 44 -2 33 -15 -7 -9 -11 -17 -8 -20 8 -8 48 7 48 19 0 12 31 16 125 18 103 2 125 -1 119 -16 -3 -8 2 -16 13 -19 10 -3 -5 -5 -34 -6 -40 -1 -55 -6 -66 -21 -13 -18 -15 -19 -21 -5 -4 12 -14 15 -41 10 -19 -3 -51 -7 -70 -10 -21 -4 -35 -12 -35 -20 0 -18 59 -29 108 -20 20 4 93 6 162 6 127 -1 164 7 181 39 4 8 18 37 30 63 l23 48 -33 217 c-19 125 -40 229 -50 246 -9 16 -32 37 -51 47 -31 17 -60 19 -295 19 -251 0 -262 -1 -305 -22z m17 -100 c-3 -7 -5 -2 -5 12 0 14 2 19 5 13 2 -7 2 -19 0 -25z m13 -23 c0 -3 -2 -5 -5 -5 -3 0 -5 2 -5 5 0 3 2 5 5 5 3 0 5 -2 5 -5z m492 -13 c5 -5 10 -29 11 -53 l2 -44 -136 -3 c-155 -3 -155 -3 -141 -87 l7 -40 64 -3 c68 -3 77 11 12 22 -37 6 -51 20 -51 52 0 12 22 14 127 12 l128 -3 17 -90 c9 -49 15 -101 12 -115 -4 -24 -7 -25 -82 -26 -42 0 -102 -1 -132 -2 -30 -1 -96 0 -147 4 l-92 6 -10 51 c-5 29 -15 97 -21 152 -6 55 -13 117 -16 137 l-6 37 44 4 c67 8 401 -2 410 -11z m68 -447 l25 -14 -26 -1 c-15 0 -32 7 -39 15 -17 20 5 20 40 0z"/>
 <path d="M2190 2120 c0 -7 3 -10 7 -7 3 4 3 10 0 14 -4 3 -7 0 -7 -7z"/>
 <path d="M489 1942 c-95 -49 -169 -167 -169 -268 0 -30 4 -34 43 -46 l42 -13 -37 -3 c-33 -3 -38 -7 -38 -28 0 -51 101 -830 112 -863 13 -42 82 -112 140 -143 l43 -23 476 0 475 0 59 30 c150 77 194 230 145 504 -11 62 -36 230 -55 374 -19 144 -42 284 -50 312 -18 65 -63 127 -117 162 l-42 28 -486 3 -487 3 -54 -29z m917 -290 c7 -9 18 -39 24 -67 14 -64 25 -255 16 -288 l-6 -27 -208 -2 c-202 -3 -207 -3 -210 -24 -5 -33 61 -44 257 -44 l170 0 10 -37 c6 -21 15 -83 21 -138 6 -55 13 -112 16 -128 l6 -27 -394 2 -393 3 -18 135 c-10 74 -34 246 -53 381 -19 135 -32 253 -28 262 8 23 70 25 453 21 294 -4 325 -6 337 -22z"/>
 <path d="M1994 1956 c-51 -23 -108 -81 -140 -143 -28 -56 -29 -63 -28 -193 1 -110 7 -165 33 -295 17 -88 34 -186 38 -217 3 -32 11 -58 17 -58 6 0 30 8 54 18 38 15 43 20 39 44 -5 37 17 43 42 13 22 -29 43 -32 61 -10 19 23 30 1 30 -63 l0 -54 -30 7 c-21 5 -39 2 -55 -9 -13 -9 -44 -16 -68 -16 -23 0 -48 -5 -55 -12 -18 -18 -15 -84 13 -273 46 -312 69 -382 146 -448 69 -60 110 -69 321 -75 336 -8 466 43 518 203 25 76 6 284 -65 720 -36 220 -68 438 -71 485 -4 83 -32 198 -60 252 -23 45 -75 98 -115 119 -35 17 -60 19 -316 19 -213 -1 -285 -4 -309 -14z m518 -531 c45 -283 44 -281 143 -271 65 6 91 -3 82 -28 -5 -13 -22 -16 -81 -16 -72 0 -76 -1 -82 -25 -4 -16 0 -35 11 -51 16 -25 20 -26 68 -20 65 9 53 -11 -14 -22 l-44 -7 -3 -73 c-2 -46 6 -125 23 -215 14 -79 25 -158 25 -175 l0 -32 -180 0 -179 0 -10 38 c-5 20 -19 117 -31 214 -12 97 -25 192 -31 210 -10 36 -89 636 -89 680 0 33 14 35 215 34 l139 -1 38 -240z m253 -415 c3 -5 -1 -10 -9 -10 -9 0 -16 5 -16 10 0 6 4 10 9 10 6 0 13 -4 16 -10z m55 -15 c0 -3 -2 -5 -5 -5 -3 0 -5 2 -5 5 0 3 2 5 5 5 3 0 5 -2 5 -5z"/>
 </g>

</svg>